# xmcd
#
# Track frame offsets:
#	150
#	15000
#	29400
#	44440
#	60946
#	72556
#	86925
#	103967
#	120599
#	137056
#	154832
#	166500
#	180003
#	195639
#	210151
#	228151
#	239401
#
# Disc length: 3384 seconds
#
# Revision: 0
# Processed by: cddbd v1.5.2PL0 Copyright (c) Steve Scherf et al.
# Submitted via: EZCDAudioConverter 3.1.7.1
#
DISCID=d10d3611
DTITLE=Die Campbells - Homegrown Country
DYEAR=1900
DGENRE=
TTITLE0=Let your Love flow
TTITLE1=Boot scooting Boogie
TTITLE2=Some Broken Hearts
TTITLE3=Footloose
TTITLE4=On the wings of a Nightingale
TTITLE5=Cot on eye joe
TTITLE6=The part of me
TTITLE7=Sweet home alabama
TTITLE8=Save the last Dance
TTITLE9=Amazed
TTITLE10=Tequila Shiela
TTITLE11=Million Drums
TTITLE12=Like a Star
TTITLE13=Brown Eyed Girl
TTITLE14=Cowboy Melody
TTITLE15=Jingle Bells
TTITLE16=Merry Christmas Everyone
EXTD=
EXTT0=
EXTT1=
EXTT2=
EXTT3=
EXTT4=
EXTT5=
EXTT6=
EXTT7=
EXTT8=
EXTT9=
EXTT10=
EXTT11=
EXTT12=
EXTT13=
EXTT14=
EXTT15=
EXTT16=
PLAYORDER=
